<svg width="25" height="25" viewBox="0 0 25 25" fill="none" xmlns="http://www.w3.org/2000/svg">
<mask id="mask0_44_1271" style="mask-type:alpha" maskUnits="userSpaceOnUse" x="0" y="0" width="25" height="25">
<rect x="0.369781" y="0.487305" width="24" height="24" fill="#D9D9D9"/>
</mask>
<g mask="url(#mask0_44_1271)">
<path d="M12.3698 21.4873L10.9198 20.1873C9.23645 18.6707 7.84478 17.3623 6.74478 16.2623C5.64478 15.1623 4.76978 14.1748 4.11978 13.2998C3.46978 12.4248 3.01561 11.6207 2.75728 10.8873C2.49895 10.154 2.36978 9.404 2.36978 8.63733C2.36978 7.07066 2.89478 5.76233 3.94478 4.71233C4.99478 3.66233 6.30311 3.13733 7.86978 3.13733C8.73645 3.13733 9.56145 3.32066 10.3448 3.68733C11.1281 4.054 11.8031 4.57066 12.3698 5.23733C12.9364 4.57066 13.6114 4.054 14.3948 3.68733C15.1781 3.32066 16.0031 3.13733 16.8698 3.13733C18.4364 3.13733 19.7448 3.66233 20.7948 4.71233C21.8448 5.76233 22.3698 7.07066 22.3698 8.63733C22.3698 9.404 22.2406 10.154 21.9823 10.8873C21.7239 11.6207 21.2698 12.4248 20.6198 13.2998C19.9698 14.1748 19.0948 15.1623 17.9948 16.2623C16.8948 17.3623 15.5031 18.6707 13.8198 20.1873L12.3698 21.4873ZM12.3698 18.7873C13.9698 17.354 15.2864 16.1248 16.3198 15.0998C17.3531 14.0748 18.1698 13.1832 18.7698 12.4248C19.3698 11.6665 19.7864 10.9915 20.0198 10.3998C20.2531 9.80816 20.3698 9.22066 20.3698 8.63733C20.3698 7.63733 20.0364 6.804 19.3698 6.13733C18.7031 5.47066 17.8698 5.13733 16.8698 5.13733C16.0864 5.13733 15.3614 5.35816 14.6948 5.79983C14.0281 6.2415 13.5698 6.804 13.3198 7.48733H11.4198C11.1698 6.804 10.7114 6.2415 10.0448 5.79983C9.37811 5.35816 8.65311 5.13733 7.86978 5.13733C6.86978 5.13733 6.03645 5.47066 5.36978 6.13733C4.70311 6.804 4.36978 7.63733 4.36978 8.63733C4.36978 9.22066 4.48645 9.80816 4.71978 10.3998C4.95311 10.9915 5.36978 11.6665 5.96978 12.4248C6.56978 13.1832 7.38645 14.0748 8.41978 15.0998C9.45311 16.1248 10.7698 17.354 12.3698 18.7873Z" fill="#1C1B1F"/>
</g>
</svg>
