<svg width="14" height="14" viewBox="0 0 14 14" fill="none" xmlns="http://www.w3.org/2000/svg">
<mask id="mask0_17_1246" style="mask-type:alpha" maskUnits="userSpaceOnUse" x="0" y="0" width="14" height="14">
<rect width="14" height="14" fill="#D9D9D9"/>
</mask>
<g mask="url(#mask0_17_1246)">
<path d="M7.00001 6.99996C7.32084 6.99996 7.5955 6.88572 7.82397 6.65725C8.05244 6.42878 8.16668 6.15413 8.16668 5.83329C8.16668 5.51246 8.05244 5.23781 7.82397 5.00933C7.5955 4.78086 7.32084 4.66663 7.00001 4.66663C6.67918 4.66663 6.40452 4.78086 6.17605 5.00933C5.94758 5.23781 5.83334 5.51246 5.83334 5.83329C5.83334 6.15413 5.94758 6.42878 6.17605 6.65725C6.40452 6.88572 6.67918 6.99996 7.00001 6.99996ZM7.00001 11.2875C8.18612 10.1986 9.06598 9.20933 9.63959 8.31975C10.2132 7.43017 10.5 6.64024 10.5 5.94996C10.5 4.89024 10.1622 4.02253 9.48647 3.34683C8.81077 2.67114 7.98195 2.33329 7.00001 2.33329C6.01807 2.33329 5.18925 2.67114 4.51355 3.34683C3.83786 4.02253 3.50001 4.89024 3.50001 5.94996C3.50001 6.64024 3.78682 7.43017 4.36043 8.31975C4.93404 9.20933 5.8139 10.1986 7.00001 11.2875ZM7.00001 12.8333C5.43473 11.5013 4.26564 10.2642 3.49272 9.12183C2.7198 7.97947 2.33334 6.92218 2.33334 5.94996C2.33334 4.49163 2.80244 3.32982 3.74064 2.46454C4.67883 1.59926 5.76529 1.16663 7.00001 1.16663C8.23473 1.16663 9.32119 1.59926 10.2594 2.46454C11.1976 3.32982 11.6667 4.49163 11.6667 5.94996C11.6667 6.92218 11.2802 7.97947 10.5073 9.12183C9.73438 10.2642 8.56529 11.5013 7.00001 12.8333Z" fill="#1C1B1F"/>
</g>
</svg>
