<svg width="17" height="19" viewBox="0 0 17 19" fill="none" xmlns="http://www.w3.org/2000/svg">
<path d="M12.3174 9.15547C13.2027 8.21506 13.75 6.95309 13.75 5.5625C13.75 2.66778 11.3947 0.3125 8.5 0.3125C5.60528 0.3125 3.25 2.66778 3.25 5.5625C3.25 6.95309 3.79731 8.21506 4.68259 9.15547C2.05891 10.6196 0.625 13.721 0.625 18.0312C0.625 18.3942 0.919 18.6875 1.28125 18.6875H15.7188C16.0817 18.6875 16.375 18.3942 16.375 18.0312C16.375 13.7203 14.9411 10.6196 12.3174 9.15547ZM8.5 1.625C10.6715 1.625 12.4375 3.39097 12.4375 5.5625C12.4375 7.73403 10.6715 9.5 8.5 9.5C6.32847 9.5 4.5625 7.73403 4.5625 5.5625C4.5625 3.39097 6.32847 1.625 8.5 1.625ZM1.94931 17.375C2.05234 14.5964 2.86019 11.3421 5.81003 10.0624C6.59753 10.5356 7.51628 10.8125 8.5 10.8125C9.48372 10.8125 10.4025 10.5356 11.19 10.0624C14.1392 11.3414 14.9477 14.5964 15.05 17.375H1.94931Z" fill="#1BD0E0"/>
</svg>
